<svg width="16" height="16" viewBox="0 0 16 16" fill="none" xmlns="http://www.w3.org/2000/svg">
<path d="M14 3H2C1.73478 3 1.48043 3.10536 1.29289 3.29289C1.10536 3.48043 1 3.73478 1 4V6.05625V11.9937C1 12.259 1.10536 12.5133 1.29289 12.7009C1.48043 12.8884 1.73478 12.9937 2 12.9937H14C14.2652 12.9937 14.5196 12.8884 14.7071 12.7009C14.8946 12.5133 15 12.259 15 11.9937V4C15 3.73478 14.8946 3.48043 14.7071 3.29289C14.5196 3.10536 14.2652 3 14 3V3ZM8.5 11H7.5C7.36739 11 7.24021 10.9473 7.14645 10.8536C7.05268 10.7598 7 10.6326 7 10.5C7 10.3674 7.05268 10.2402 7.14645 10.1464C7.24021 10.0527 7.36739 10 7.5 10H8.5C8.63261 10 8.75979 10.0527 8.85355 10.1464C8.94732 10.2402 9 10.3674 9 10.5C9 10.6326 8.94732 10.7598 8.85355 10.8536C8.75979 10.9473 8.63261 11 8.5 11ZM12.5 11H10.5C10.3674 11 10.2402 10.9473 10.1464 10.8536C10.0527 10.7598 10 10.6326 10 10.5C10 10.3674 10.0527 10.2402 10.1464 10.1464C10.2402 10.0527 10.3674 10 10.5 10H12.5C12.6326 10 12.7598 10.0527 12.8536 10.1464C12.9473 10.2402 13 10.3674 13 10.5C13 10.6326 12.9473 10.7598 12.8536 10.8536C12.7598 10.9473 12.6326 11 12.5 11ZM2 5.55625V4H14V5.55625H2Z" fill="#282A30"/>
</svg>
