<svg width="35" height="24" viewBox="0 0 35 24" fill="none" xmlns="http://www.w3.org/2000/svg">
<mask id="path-1-inside-1_43_11301" fill="white">
<path d="M0 4C0 1.79086 1.79086 0 4 0H31C33.2091 0 35 1.79086 35 4V20C35 22.2091 33.2091 24 31 24H4C1.79086 24 0 22.2091 0 20V4Z"/>
</mask>
<path d="M0 4C0 1.79086 1.79086 0 4 0H31C33.2091 0 35 1.79086 35 4V20C35 22.2091 33.2091 24 31 24H4C1.79086 24 0 22.2091 0 20V4Z" fill="white"/>
<path d="M4 1H31V-1H4V1ZM34 4V20H36V4H34ZM31 23H4V25H31V23ZM1 20V4H-1V20H1ZM4 23C2.34315 23 1 21.6569 1 20H-1C-1 22.7614 1.23858 25 4 25V23ZM34 20C34 21.6569 32.6569 23 31 23V25C33.7614 25 36 22.7614 36 20H34ZM31 1C32.6569 1 34 2.34315 34 4H36C36 1.23858 33.7614 -1 31 -1V1ZM4 -1C1.23858 -1 -1 1.23858 -1 4H1C1 2.34315 2.34315 1 4 1V-1Z" fill="#E4E4E7" mask="url(#path-1-inside-1_43_11301)"/>
<path fill-rule="evenodd" clip-rule="evenodd" d="M17.75 17.1569C16.5584 18.1852 15.0128 18.806 13.3238 18.806C9.55511 18.806 6.5 15.7154 6.5 11.903C6.5 8.09057 9.55511 5 13.3238 5C15.0128 5 16.5584 5.62075 17.75 6.64903C18.9416 5.62075 20.4872 5 22.1762 5C25.9449 5 29 8.09057 29 11.903C29 15.7154 25.9449 18.806 22.1762 18.806C20.4872 18.806 18.9416 18.1852 17.75 17.1569Z" fill="#ED0006"/>
<path fill-rule="evenodd" clip-rule="evenodd" d="M17.75 17.1569C19.2172 15.8908 20.1475 14.0068 20.1475 11.903C20.1475 9.79917 19.2172 7.91517 17.75 6.64903C18.9416 5.62075 20.4872 5 22.1762 5C25.9449 5 29 8.09057 29 11.903C29 15.7154 25.9449 18.806 22.1762 18.806C20.4872 18.806 18.9416 18.1852 17.75 17.1569Z" fill="#F9A000"/>
<path fill-rule="evenodd" clip-rule="evenodd" d="M17.75 6.64906C19.2172 7.9152 20.1476 9.79919 20.1476 11.903C20.1476 14.0068 19.2172 15.8908 17.75 17.1569C16.2829 15.8908 15.3525 14.0068 15.3525 11.903C15.3525 9.79919 16.2829 7.9152 17.75 6.64906Z" fill="#FF5E00"/>
</svg>
