<svg width="35" height="24" viewBox="0 0 35 24" fill="none" xmlns="http://www.w3.org/2000/svg">
<mask id="path-1-inside-1_43_11269" fill="white">
<path d="M0 4C0 1.79086 1.79086 0 4 0H31C33.2091 0 35 1.79086 35 4V20C35 22.2091 33.2091 24 31 24H4C1.79086 24 0 22.2091 0 20V4Z"/>
</mask>
<path d="M0 4C0 1.79086 1.79086 0 4 0H31C33.2091 0 35 1.79086 35 4V20C35 22.2091 33.2091 24 31 24H4C1.79086 24 0 22.2091 0 20V4Z" fill="white"/>
<path d="M4 1H31V-1H4V1ZM34 4V20H36V4H34ZM31 23H4V25H31V23ZM1 20V4H-1V20H1ZM4 23C2.34315 23 1 21.6569 1 20H-1C-1 22.7614 1.23858 25 4 25V23ZM34 20C34 21.6569 32.6569 23 31 23V25C33.7614 25 36 22.7614 36 20H34ZM31 1C32.6569 1 34 2.34315 34 4H36C36 1.23858 33.7614 -1 31 -1V1ZM4 -1C1.23858 -1 -1 1.23858 -1 4H1C1 2.34315 2.34315 1 4 1V-1Z" fill="#E4E4E7" mask="url(#path-1-inside-1_43_11269)"/>
<path fill-rule="evenodd" clip-rule="evenodd" d="M10.6253 16.2582H8.50494L6.91495 10.1924C6.83949 9.91334 6.67925 9.66667 6.44354 9.5504C5.85531 9.25823 5.20712 9.0257 4.5 8.90843V8.6749H7.91567C8.38708 8.6749 8.74064 9.0257 8.79957 9.43313L9.62454 13.8086L11.7438 8.6749H13.8052L10.6253 16.2582ZM14.9838 16.2582H12.9813L14.6302 8.6749H16.6327L14.9838 16.2582ZM19.2234 10.7757C19.2823 10.3673 19.6359 10.1337 20.0483 10.1337C20.6965 10.0751 21.4026 10.1924 21.9919 10.4835L22.3454 8.85081C21.7562 8.61727 21.108 8.5 20.5198 8.5C18.5762 8.5 17.162 9.55041 17.162 11.0082C17.162 12.1173 18.1637 12.6996 18.8708 13.0504C19.6359 13.4002 19.9305 13.6338 19.8716 13.9835C19.8716 14.5082 19.2823 14.7418 18.6941 14.7418C17.9869 14.7418 17.2798 14.5669 16.6327 14.2747L16.2791 15.9085C16.9862 16.1996 17.7512 16.3169 18.4584 16.3169C20.6376 16.3745 21.9919 15.3251 21.9919 13.75C21.9919 11.7665 19.2234 11.6502 19.2234 10.7757ZM29 16.2582L27.41 8.6749H25.7022C25.3486 8.6749 24.9951 8.90843 24.8772 9.25823L21.9329 16.2582H23.9943L24.4058 15.1502H26.9386L27.1743 16.2582H29ZM25.9968 10.7171L26.585 13.5751H24.9361L25.9968 10.7171Z" fill="#172B85"/>
</svg>
